<?xml version="1.0" encoding="iso-8859-1"?>
<!-- Generator: Adobe Illustrator 19.0.0, SVG Export Plug-In . SVG Version: 6.00 Build 0)  -->
<svg xmlns="http://www.w3.org/2000/svg" xmlns:xlink="http://www.w3.org/1999/xlink" version="1.1" id="Layer_1" x="0px" y="0px" viewBox="0 0 512 512" style="enable-background:new 0 0 512 512;" xml:space="preserve">
<path style="fill:#708A99;" d="M493.137,299.116v43.116c0,11.906-9.651,21.558-21.558,21.558H40.421  c-11.906,0-21.558-9.651-21.558-21.558V105.095V72.758V40.421c0-11.906,9.651-21.558,21.558-21.558h150.905H353.01h118.568  c11.906,0,21.558,9.651,21.558,21.558v226.358V299.116z"/>
<path style="fill:#6D7D7D;" d="M493.137,40.421v226.358v32.337v43.116c0,11.906-9.651,21.558-21.558,21.558h-21.558V18.863h21.558  C483.485,18.863,493.137,28.515,493.137,40.421z"/>
<path style="fill:#D1D1D1;" d="M482.358,8.084H353.01H191.326H29.642c-11.906,0-21.558,9.651-21.558,21.558v43.116v32.337V353.01  c0,11.906,9.651,21.558,21.558,21.558h161.684v129.347h129.347V374.568h161.684c11.906,0,21.558-9.651,21.558-21.558v-53.895  v-32.337V29.642C503.916,17.736,494.264,8.084,482.358,8.084z M471.579,342.232H40.421V40.421h431.158V342.232z"/>
<path style="fill:#A5A5A5;" d="M396.126,482.358L396.126,482.358c0,11.906-9.651,21.558-21.558,21.558h-53.895h-32.337H137.432  c-11.906,0-21.558-9.651-21.558-21.558l0,0c0-11.906,9.651-21.558,21.558-21.558h150.905v-53.895h-48.505  c-8.929,0-16.168-7.239-16.168-16.168c0-8.929,7.239-16.168,16.168-16.168h48.505h5.389h26.947V460.8h53.895  C386.475,460.8,396.126,470.451,396.126,482.358z"/>
<path style="fill:#777777;" d="M396.126,482.358L396.126,482.358c0,11.906-9.651,21.558-21.558,21.558h-10.779V460.8h10.779  C386.475,460.8,396.126,470.451,396.126,482.358z"/>
<path style="fill:#FF653D;" d="M370.576,214.229c0,26.789-21.716,48.505-48.505,48.505s-48.505-21.716-48.505-48.505  s21.716-48.505,48.505-48.505S370.576,187.441,370.576,214.229z"/>
<path style="fill:#A03F4B;" d="M370.576,214.229c0,26.789-21.716,48.505-48.505,48.505c-3.794,0-7.481-0.449-11.024-1.274  c21.475-4.994,37.482-24.236,37.482-47.231s-16.007-42.238-37.482-47.231c3.543-0.824,7.231-1.274,11.024-1.274  C348.86,165.724,370.576,187.441,370.576,214.229z"/>
<path style="fill:#FFB185;" d="M322.071,196.591c0,7.306-5.923,13.229-13.229,13.229c-7.306,0-13.229-5.923-13.229-13.229  s5.923-13.229,13.229-13.229C316.148,183.362,322.071,189.285,322.071,196.591z"/>
<path style="fill:#9ACDB7;" d="M252.394,273.514c7.442,12.888,3.026,29.369-9.864,36.81c-12.888,7.442-29.369,3.026-36.811-9.863  c-7.442-12.889-3.026-29.369,9.864-36.811C228.472,256.209,244.953,260.625,252.394,273.514z M438.421,273.514  c-7.442-12.889-23.922-17.305-36.811-9.864c-12.888,7.442-17.305,23.922-9.864,36.811c7.442,12.888,23.922,17.305,36.811,9.863  C441.446,302.883,445.863,286.402,438.421,273.514z M308.597,72.324c-12.888,7.442-17.305,23.922-9.864,36.811  c7.442,12.888,23.922,17.305,36.811,9.863c12.888-7.441,17.305-23.922,9.864-36.81C337.966,69.299,321.485,64.883,308.597,72.324z"/>
<g>
	<path style="fill:#B8E0CD;" d="M230.837,273.514c7.442,12.888,3.026,29.369-9.864,36.81c-0.883,0.51-1.784,0.959-2.697,1.358   c-5.101-2.223-9.561-6.034-12.556-11.222c-7.442-12.889-3.026-29.369,9.864-36.811c0.883-0.51,1.784-0.958,2.697-1.358   C223.381,264.513,227.841,268.326,230.837,273.514z M416.863,273.514c-2.995-5.188-7.456-9-12.556-11.222   c-0.913,0.4-1.813,0.848-2.697,1.358c-12.888,7.442-17.305,23.922-9.864,36.811c2.995,5.188,7.456,8.999,12.556,11.222   c0.913-0.4,1.813-0.848,2.697-1.358C419.888,302.883,424.305,286.402,416.863,273.514z M311.293,70.965   c-0.913,0.4-1.813,0.848-2.697,1.358c-12.888,7.442-17.305,23.922-9.864,36.811c2.995,5.188,7.456,8.999,12.556,11.222   c0.913-0.4,1.813-0.848,2.697-1.358c12.888-7.441,17.305-23.922,9.864-36.81C320.855,76.999,316.393,73.187,311.293,70.965z"/>
	<path style="fill:#B8E0CD;" d="M158.989,352.741L158.989,352.741c0,11.906-9.651,21.558-21.558,21.558v64.943H72.758v-64.943   c-11.906,0-21.558-9.651-21.558-21.558l0,0c0-11.906,9.651-21.558,21.558-21.558h64.674   C149.338,331.183,158.989,340.835,158.989,352.741z"/>
</g>
<path style="fill:#9ACDB7;" d="M158.989,352.741L158.989,352.741c0,11.906-9.651,21.558-21.558,21.558v64.943h-32.337v-64.943  c11.906,0,21.558-9.651,21.558-21.558l0,0c0-11.906-9.651-21.558-21.558-21.558h32.337  C149.338,331.183,158.989,340.835,158.989,352.741z"/>
<path style="fill:#FF8657;" d="M156.608,503.646H53.581c-13.221,0-23.939-10.717-23.939-23.939l0,0c0-5.436,1.85-10.71,5.246-14.955  l37.87-47.338h64.674l37.87,47.338c3.395,4.245,5.246,9.519,5.246,14.955l0,0C180.547,492.929,169.83,503.646,156.608,503.646z"/>
<path style="fill:#CC5E61;" d="M180.547,479.707L180.547,479.707c0,13.221-10.717,23.939-23.939,23.939h-32.337  c13.221,0,23.939-10.717,23.939-23.939l0,0c0-5.436-1.85-10.71-5.246-14.955l-37.87-47.338h32.337l37.87,47.338  C178.698,468.997,180.547,474.27,180.547,479.707z"/>
<path d="M256,468.884h-53.895c-4.465,0-8.084-3.618-8.084-8.084s3.62-8.084,8.084-8.084H256c4.465,0,8.084,3.618,8.084,8.084  S260.465,468.884,256,468.884z M188.632,126.653c0-4.466-3.62-8.084-8.084-8.084H72.758c-4.465,0-8.084,3.618-8.084,8.084  c0,4.466,3.62,8.084,8.084,8.084h107.789C185.012,134.737,188.632,131.118,188.632,126.653z M180.547,75.453H72.758  c-4.465,0-8.084,3.618-8.084,8.084c0,4.466,3.62,8.084,8.084,8.084h107.789c4.465,0,8.084-3.618,8.084-8.084  C188.632,79.071,185.012,75.453,180.547,75.453z M126.653,161.684H72.758c-4.465,0-8.084,3.618-8.084,8.084  c0,4.466,3.62,8.084,8.084,8.084h53.895c4.465,0,8.084-3.618,8.084-8.084C134.737,165.303,131.117,161.684,126.653,161.684z   M181.614,459.971c4.525,5.656,7.017,12.761,7.017,20.006c0,17.658-14.366,32.023-32.023,32.023H53.581  c-17.657,0-32.023-14.365-32.023-32.023c0-7.245,2.492-14.35,7.017-20.006l36.099-45.123v-32.196H29.642  C13.297,382.653,0,369.355,0,353.01V105.095c0-4.466,3.62-8.084,8.084-8.084s8.084,3.618,8.084,8.084V353.01  c0,7.43,6.044,13.474,13.474,13.474H46.38c-2.076-4.046-3.264-8.622-3.264-13.474c0-16.344,13.297-29.642,29.642-29.642h64.674  c16.345,0,29.642,13.298,29.642,29.642c0,13.543-9.13,24.994-21.558,28.522v33.316L181.614,459.971z M59.284,353.01  c0,7.43,6.044,13.474,13.474,13.474c4.465,0,8.084,3.618,8.084,8.084V409.6h48.505v-26.947h-24.253  c-4.465,0-8.084-3.618-8.084-8.084c0-4.466,3.62-8.084,8.084-8.084h32.337c7.43,0,13.474-6.044,13.474-13.474  s-6.044-13.474-13.474-13.474H72.758C65.328,339.537,59.284,345.581,59.284,353.01z M172.463,479.977  c0-3.587-1.234-7.104-3.474-9.904l-35.442-44.305H76.643L41.2,470.073c-2.24,2.799-3.474,6.316-3.474,9.904  c0,8.742,7.113,15.855,15.855,15.855h103.026C165.35,495.832,172.463,488.719,172.463,479.977z M75.453,299.116v1.078  c0,4.466,3.62,8.084,8.084,8.084s8.084-3.618,8.084-8.084v-1.078c0-4.466-3.62-8.084-8.084-8.084S75.453,294.65,75.453,299.116z   M97.011,234.442v1.078c0,4.466,3.62,8.084,8.084,8.084s8.084-3.618,8.084-8.084v-1.078c0-4.466-3.62-8.084-8.084-8.084  S97.011,229.976,97.011,234.442z M126.653,268.396c-4.465,0-8.084,3.618-8.084,8.084v1.078c0,4.466,3.62,8.084,8.084,8.084  s8.084-3.618,8.084-8.084v-1.078C134.737,272.014,131.117,268.396,126.653,268.396z M8.084,80.842c4.465,0,8.084-3.618,8.084-8.084  V29.642c0-7.43,6.044-13.474,13.474-13.474h344.926c4.465,0,8.084-3.618,8.084-8.084S379.033,0,374.568,0H29.642  C13.297,0,0,13.298,0,29.642v43.116C0,77.224,3.62,80.842,8.084,80.842z M482.358,0h-75.453c-4.465,0-8.084,3.618-8.084,8.084  s3.62,8.084,8.084,8.084h75.453c7.43,0,13.474,6.044,13.474,13.474v237.137c0,4.466,3.62,8.084,8.084,8.084s8.084-3.618,8.084-8.084  V29.642C512,13.298,498.703,0,482.358,0z M503.916,291.032c-4.465,0-8.084,3.618-8.084,8.084v53.895  c0,7.43-6.044,13.474-13.474,13.474H178.751c-4.465,0-8.084,3.618-8.084,8.084c0,4.466,3.62,8.084,8.084,8.084h4.492v45.811  c0,4.466,3.62,8.084,8.084,8.084c4.465,0,8.084-3.618,8.084-8.084v-45.811h113.179v70.063h-24.253c-4.465,0-8.084,3.618-8.084,8.084  s3.62,8.084,8.084,8.084h86.232c7.43,0,13.474,6.044,13.474,13.474s-6.044,13.474-13.474,13.474H212.884  c-4.465,0-8.084,3.618-8.084,8.084s3.62,8.084,8.084,8.084h161.684c16.345,0,29.642-13.298,29.642-29.642  s-13.297-29.642-29.642-29.642h-45.811v-70.063h153.6c16.345,0,29.642-13.298,29.642-29.642v-53.895  C512,294.65,508.38,291.032,503.916,291.032z M381.519,276.943l-27.624-15.949c-9.074,6.195-20.032,9.825-31.824,9.825  s-22.75-3.63-31.824-9.825l-27.624,15.949c1.857,6.164,1.98,12.736,0.273,19.11c-2.422,9.039-8.219,16.593-16.323,21.271  c-5.502,3.177-11.518,4.687-17.457,4.687c-12.117,0-23.916-6.282-30.398-17.508c-4.678-8.104-5.922-17.544-3.5-26.582  c2.422-9.039,8.219-16.594,16.323-21.271c8.104-4.679,17.543-5.92,26.583-3.5c6.375,1.708,12.005,5.101,16.414,9.792l23.313-13.46  c-7.732-9.678-12.37-21.931-12.37-35.253c0-28.458,21.119-52.067,48.505-56.003V129.74c-15.43-3.661-26.947-17.545-26.947-34.08  c0-19.317,15.716-35.032,35.032-35.032s35.032,15.715,35.032,35.032c0,16.534-11.517,30.419-26.947,34.08v28.487  c27.386,3.935,48.505,27.545,48.505,56.003c0,13.322-4.638,25.574-12.37,35.253l23.313,13.46c4.41-4.691,10.04-8.083,16.414-9.792  c9.039-2.422,18.479-1.179,26.583,3.5c8.104,4.678,13.901,12.233,16.322,21.271c2.422,9.038,1.179,18.479-3.5,26.582  c-6.481,11.225-18.281,17.508-30.398,17.508c-5.94,0-11.953-1.509-17.457-4.687c-8.104-4.679-13.901-12.233-16.323-21.271  C379.537,289.68,379.661,283.107,381.519,276.943z M398.748,277.556c-2.519,4.363-3.188,9.447-1.885,14.313  c1.304,4.867,4.426,8.935,8.789,11.454c9.006,5.199,20.567,2.102,25.768-6.904c2.519-4.363,3.188-9.447,1.884-14.313  c-1.304-4.867-4.425-8.935-8.789-11.454c-2.906-1.678-6.132-2.536-9.401-2.536c-1.638,0-3.288,0.216-4.913,0.651  C405.335,270.071,401.268,273.192,398.748,277.556z M322.071,114.524c10.401,0,18.863-8.463,18.863-18.863  s-8.463-18.863-18.863-18.863c-10.401,0-18.863,8.463-18.863,18.863S311.669,114.524,322.071,114.524z M245.394,277.556  c-2.519-4.363-6.587-7.485-11.454-8.788c-4.87-1.306-9.951-0.635-14.313,1.884c-4.364,2.519-7.485,6.587-8.789,11.454  c-1.304,4.868-0.635,9.95,1.884,14.313c5.201,9.008,16.761,12.104,25.768,6.904c4.363-2.519,7.485-6.587,8.789-11.454  C248.582,287.002,247.913,281.919,245.394,277.556z M322.071,254.65c22.289,0,40.421-18.132,40.421-40.421  s-18.132-40.421-40.421-40.421c-22.289,0-40.421,18.132-40.421,40.421S299.782,254.65,322.071,254.65z"/>
<g>
</g>
<g>
</g>
<g>
</g>
<g>
</g>
<g>
</g>
<g>
</g>
<g>
</g>
<g>
</g>
<g>
</g>
<g>
</g>
<g>
</g>
<g>
</g>
<g>
</g>
<g>
</g>
<g>
</g>
</svg>
